/* XPM */
static char *tmp_xpm[] = {
"21 13 4 1",
" 	c None",
". 	c #00008B",
",	c #00FF00",
"#	c #F5F5F5",
"....................#",
"....................#",
"...................#.",
"...................#.",
"..................#..",
"..................#..",
"..#####..#####....#..",
".................#...",
".................#...",
"................#....",
"................#....",
"...............#.....",
"...............#.....",
""};
