/* XPM */
static char *Wooden_xpm[] = {
"16 16 162 2",
"AA	c #FFFFFF",
"BA	c #C8B2A0",
"CA	c #C7B3A3",
"DA	c #CCA688",
"EA	c #D8945D",
"FA	c #DC965D",
"GA	c #E8A46B",
"HA	c #E9A66C",
"IA	c #E4A065",
"JA	c #D89159",
"KA	c #E09B62",
"LA	c #E5A067",
"MA	c #DB945B",
"NA	c #DE9A60",
"OA	c #CBA78B",
"PA	c #CAA68A",
"QA	c #D59462",
"RA	c #DD955D",
"SA	c #DE9861",
"TA	c #EAA66D",
"UA	c #E7A46A",
"VA	c #E49F66",
"WA	c #D8915A",
"XA	c #E39E66",
"YA	c #E6A268",
"ZA	c #DD975E",
"aA	c #E29D63",
"bA	c #B88760",
"cA	c #B68660",
"dA	c #BF8A60",
"eA	c #DB945D",
"fA	c #DA935D",
"gA	c #DE9962",
"hA	c #E5A167",
"iA	c #DE9860",
"jA	c #D58D57",
"kA	c #E09B61",
"lA	c #DD975D",
"mA	c #361703",
"nA	c #2D1002",
"oA	c #7D4E2C",
"pA	c #E39A61",
"qA	c #D9925C",
"rA	c #E09B63",
"sA	c #E49F65",
"tA	c #D48D56",
"uA	c #E09B60",
"vA	c #DD985E",
"wA	c #DC985E",
"xA	c #311300",
"yA	c #290D00",
"zA	c #9A653C",
"0A	c #E19860",
"1A	c #D7915A",
"2A	c #DE9960",
"3A	c #E29E64",
"4A	c #D69059",
"5A	c #DA975F",
"6A	c #D08851",
"7A	c #C97D45",
"8A	c #C87B44",
"9A	c #331400",
"+A	c #321300",
"/A	c #351703",
"AB	c #BB7C4C",
"BB	c #DC935B",
"CB	c #D68F58",
"DB	c #DD9860",
"EB	c #E39F66",
"FB	c #E4A167",
"GB	c #D48F57",
"HB	c #C57944",
"IB	c #CB7840",
"JB	c #D18049",
"KB	c #DA8E57",
"LB	c #D38B56",
"MB	c #321400",
"NB	c #2E1000",
"OB	c #48260E",
"PB	c #D08B56",
"QB	c #D48C56",
"RB	c #D28B56",
"SB	c #E3A066",
"TB	c #D9965E",
"UB	c #BF6F3A",
"VB	c #C56F39",
"WB	c #D78F5A",
"XB	c #DE9D65",
"YB	c #E2A268",
"ZB	c #CF8951",
"aB	c #2A0D00",
"bB	c #643A1D",
"cB	c #DA925A",
"dB	c #D08954",
"eB	c #D38D56",
"fB	c #DC975D",
"gB	c #DD9B62",
"hB	c #D0824A",
"iB	c #C06B36",
"jB	c #D08854",
"kB	c #E1A167",
"lB	c #DC995E",
"mB	c #DF9C63",
"nB	c #CB834B",
"oB	c #2A0E00",
"pB	c #86542F",
"qB	c #D99057",
"rB	c #CC8550",
"sB	c #D28C55",
"tB	c #D9955C",
"uB	c #D38B53",
"vB	c #CF7A41",
"wB	c #C37642",
"xB	c #D49159",
"yB	c #DB985E",
"zB	c #DA975D",
"0B	c #DB995F",
"1B	c #C47A44",
"2B	c #301200",
"3B	c #A66A3F",
"4B	c #D38952",
"5B	c #C67F4E",
"6B	c #BF7846",
"7B	c #C27843",
"8B	c #CE7E46",
"9B	c #CC7941",
"+B	c #B66937",
"/B	c #B86F3B",
"AC	c #CA8854",
"BC	c #D6945B",
"CC	c #D7955B",
"DC	c #BB723C",
"EC	c #2F1100",
"FC	c #3C1C07",
"GC	c #BF7D4A",
"HC	c #CF8750",
"IC	c #C9824D",
"JC	c #CD8853",
"KC	c #C06F3B",
"LC	c #CE7A42",
"MC	c #C5723B",
"NC	c #B2612F",
"OC	c #C67F4C",
"PC	c #D6945C",
"QC	c #D39056",
"RC	c #D49057",
"SC	c #C5814C",
"TC	c #2D1000",
"UC	c #552F15",
"VC	c #CD864F",
"WC	c #C8804B",
"XC	c #C7804B",
"YC	c #D28D54",
"ZC	c #D18D57",
"aC	c #CA7B45",
"bC	c #BD6F3B",
"cC	c #C07B47",
"dC	c #D18F55",
"eC	c #D28F55",
"fC	c #CF8B51",
"gC	c #CF8C53",
"hC	c #C57F46",
"AAAAAAAAAAAAAAAAAAAAAAAAAAAAAAAA",
"AAAAAAAAAAAAAAAAAAAAAAAAAAAAAAAA",
"AAAAAAAAAAAAAAAAAAAAAAAAAAAAAAAA",
"AAAAAAAAAAAAAAAAAAAAAAAAAAAAAAAA",
"BABABABACADAEAFAGAHAIAJAKALAMANA",
"OAOAOAOAPAQARASATAUAVAWAXAYAZAaA",
"bAbAbAcAdAeAfAgAHAhAiAjAaAkAlAkA",
"mAmAmAnAoApAqArAhAsAZAtAaAuAvAwA",
"xAxAxAyAzA0A1A2A3A3AZA4A5A6A7A8A",
"9A9A+A/AABBBCBDBEBFBGBHBIBJBKBLB",
"MBMBNBOBPBQBRBKASBTBUBVBWBXBYBZB",
"MBMBaBbBcBdBeBfBgBhBiBjBkBlBmBnB",
"9A9AoBpBqBrBsBtBuBvBwBxByBzB0B1B",
"9A+A2B3B4B5B6B7B8B9B+B/BACBCCCDC",
"+AECFCGCHCICJCKCLCMCNCOCPCQCRCSC",
"9ATCUCVCWCXCYCZCaCbCcCdCeCfCgChC"
};
